<?xml version="1.0" encoding="utf-8"?>
<svg version="1.2" baseProfile="tiny" x="0px" y="0px" viewBox="0 0.935 50.148 59.911" xmlns="http://www.w3.org/2000/svg" xmlns:bx="https://boxy-svg.com">
  <defs>
    <style bx:fonts="Montserrat">@import url(https://fonts.googleapis.com/css2?family=Montserrat%3Aital%2Cwght%400%2C100%3B0%2C200%3B0%2C300%3B0%2C400%3B0%2C500%3B0%2C600%3B0%2C700%3B0%2C800%3B0%2C900%3B1%2C100%3B1%2C200%3B1%2C300%3B1%2C400%3B1%2C500%3B1%2C600%3B1%2C700%3B1%2C800%3B1%2C900&amp;display=swap);</style>
    <linearGradient id="gradient-14" bx:pinned="true"/>
    <linearGradient gradientUnits="userSpaceOnUse" x1="50" y1="1.7" x2="50" y2="22.1" id="gradient-0">
      <stop offset="0" style="stop-color: rgba(255, 255, 255, 1)"/>
      <stop offset="1" style="stop-color: rgba(204, 204, 204, 1)"/>
    </linearGradient>
    <linearGradient gradientUnits="userSpaceOnUse" x1="11" y1="49.7" x2="11" y2="52.1" id="gradient-1">
      <stop offset="0" style="stop-color: rgba(255, 255, 255, 1)"/>
      <stop offset="1" style="stop-color: rgba(204, 204, 204, 1)"/>
    </linearGradient>
    <linearGradient gradientUnits="userSpaceOnUse" x1="89" y1="49.689" x2="89" y2="52.1" id="gradient-2">
      <stop offset="0" style="stop-color: rgba(255, 255, 255, 1)"/>
      <stop offset="1" style="stop-color: rgba(204, 204, 204, 1)"/>
    </linearGradient>
    <linearGradient gradientUnits="userSpaceOnUse" x1="18.9" y1="8.625" x2="18.9" y2="30.9" id="gradient-3">
      <stop offset="0" style="stop-color: rgba(255, 255, 255, 1)"/>
      <stop offset="1" style="stop-color: rgba(204, 204, 204, 1)"/>
    </linearGradient>
    <linearGradient gradientUnits="userSpaceOnUse" x1="81.1" y1="8.525" x2="81.1" y2="30.9" id="gradient-4">
      <stop offset="0" style="stop-color: rgba(255, 255, 255, 1)"/>
      <stop offset="1" style="stop-color: rgba(204, 204, 204, 1)"/>
    </linearGradient>
    <linearGradient gradientUnits="userSpaceOnUse" x1="83.3" y1="33.538" x2="83.3" y2="40.6" id="gradient-5">
      <stop offset="0" style="stop-color: rgba(255, 255, 255, 1)"/>
      <stop offset="1" style="stop-color: rgba(204, 204, 204, 1)"/>
    </linearGradient>
    <linearGradient gradientUnits="userSpaceOnUse" x1="36.35" y1="10.838" x2="36.35" y2="24.4" id="gradient-6">
      <stop offset="0" style="stop-color: rgba(255, 255, 255, 1)"/>
      <stop offset="1" style="stop-color: rgba(204, 204, 204, 1)"/>
    </linearGradient>
    <linearGradient gradientUnits="userSpaceOnUse" x1="63.849" y1="10.784" x2="63.849" y2="24.4" id="gradient-7">
      <stop offset="0" style="stop-color: rgba(255, 255, 255, 1)"/>
      <stop offset="1" style="stop-color: rgba(204, 204, 204, 1)"/>
    </linearGradient>
    <linearGradient gradientUnits="userSpaceOnUse" x1="16.85" y1="33.484" x2="16.85" y2="40.6" id="gradient-8">
      <stop offset="0" style="stop-color: rgba(255, 255, 255, 1)"/>
      <stop offset="1" style="stop-color: rgba(204, 204, 204, 1)"/>
    </linearGradient>
    <linearGradient gradientUnits="userSpaceOnUse" x1="47.25" y1="66.5" x2="47.25" y2="87.3" id="gradient-9">
      <stop offset="0" style="stop-color: rgba(255, 255, 255, 1)"/>
      <stop offset="1" style="stop-color: rgba(204, 204, 204, 1)"/>
    </linearGradient>
    <linearGradient gradientUnits="userSpaceOnUse" x1="50.05" y1="29.7" x2="50.05" y2="98.3" id="gradient-10">
      <stop offset="0" style="stop-color: rgba(255, 255, 255, 1)"/>
      <stop offset="1" style="stop-color: rgba(204, 204, 204, 1)"/>
    </linearGradient>
    <linearGradient gradientUnits="userSpaceOnUse" x1="25.126" y1="50.921" x2="25.126" y2="62.553" id="gradient-11">
      <stop offset="0" style="stop-color: rgba(255, 255, 255, 1)"/>
      <stop offset="1" style="stop-color: rgba(204, 204, 204, 1)"/>
    </linearGradient>
    <linearGradient gradientUnits="userSpaceOnUse" x1="25.536" y1="59.288" x2="25.536" y2="70.827" id="gradient-12">
      <stop offset="0" style="stop-color: rgba(255, 255, 255, 1)"/>
      <stop offset="1" style="stop-color: rgba(204, 204, 204, 1)"/>
    </linearGradient>
    <linearGradient gradientUnits="userSpaceOnUse" x1="25.126" y1="74.998" x2="25.126" y2="75.217" id="gradient-13">
      <stop offset="0" style="stop-color: rgba(255, 255, 255, 1)"/>
      <stop offset="1" style="stop-color: rgba(204, 204, 204, 1)"/>
    </linearGradient>
  </defs>
  <g transform="matrix(1, 0, 0, 1, 0.000205, -15.786489)">
    <g style="" transform="matrix(0.317998, 0, 0, 0.331716, 9.210201, 16.157574)">
      <path d="M50,22.1c0.7,0,1.2-0.6,1.2-1.2v-18c0-0.7-0.6-1.2-1.2-1.2s-1.2,0.6-1.2,1.2v18C48.8,21.6,49.3,22.1,50,22.1z" style="fill-rule: nonzero; paint-order: fill; fill: url(#gradient-0);"/>
      <path d="M2,52.1h18c0.7,0,1.2-0.6,1.2-1.2s-0.6-1.2-1.2-1.2H2c-0.7,0-1.2,0.6-1.2,1.2S1.3,52.1,2,52.1z" style="fill-rule: nonzero; paint-order: fill; fill: url(#gradient-1);"/>
      <path d="M78.8,50.9c0,0.7,0.6,1.2,1.2,1.2h18c0.7,0,1.2-0.6,1.2-1.2s-0.6-1.2-1.2-1.2H80C79.3,49.6,78.8,50.2,78.8,50.9z" style="fill-rule: nonzero; paint-order: fill; fill: url(#gradient-2);"/>
      <path d="M27.9,30.5c0.2,0.2,0.6,0.4,0.9,0.4s0.6-0.1,0.9-0.4c0.5-0.5,0.5-1.3,0-1.8L9.9,9C9.4,8.5,8.6,8.5,8.1,9s-0.5,1.3,0,1.8   L27.9,30.5z" style="fill-rule: nonzero; paint-order: fill; fill: url(#gradient-3);"/>
      <path d="M71.2,30.9c0.3,0,0.6-0.1,0.9-0.4l19.8-19.8c0.5-0.5,0.5-1.3,0-1.8s-1.3-0.5-1.8,0L70.3,28.8c-0.5,0.5-0.5,1.3,0,1.8   C70.6,30.8,70.9,30.9,71.2,30.9z" style="fill-rule: nonzero; paint-order: fill; fill: url(#gradient-4);"/>
      <path d="M90,34.3c-0.3-0.6-1-0.9-1.6-0.7l-11.1,4.6c-0.6,0.3-0.9,1-0.7,1.6c0.2,0.5,0.7,0.8,1.2,0.8c0.2,0,0.3,0,0.5-0.1l11-4.5   C89.9,35.7,90.2,35,90,34.3z" style="fill-rule: nonzero; paint-order: fill; fill: url(#gradient-5);"/>
      <path d="M37.4,23.6c0.2,0.5,0.7,0.8,1.2,0.8c0.2,0,0.3,0,0.5-0.1c0.6-0.3,0.9-1,0.7-1.6l-4.6-11.1c-0.3-0.6-1-0.9-1.6-0.7   c-0.6,0.3-0.9,1-0.7,1.6L37.4,23.6z" style="fill-rule: nonzero; paint-order: fill; fill: url(#gradient-6);"/>
      <path d="M61,24.3c0.2,0.1,0.3,0.1,0.5,0.1c0.5,0,1-0.3,1.2-0.8l4.6-11.1c0.3-0.6,0-1.4-0.7-1.6c-0.6-0.3-1.4,0-1.6,0.7l-4.6,11.1   C60.1,23.3,60.4,24,61,24.3z" style="fill-rule: nonzero; paint-order: fill; fill: url(#gradient-7);"/>
      <path d="M11.7,33.6c-0.6-0.3-1.4,0-1.6,0.7c-0.3,0.6,0,1.4,0.7,1.6l11.1,4.6c0.2,0.1,0.3,0.1,0.5,0.1c0.5,0,1-0.3,1.2-0.8   c0.3-0.6,0-1.4-0.7-1.6L11.7,33.6z" style="fill-rule: nonzero; paint-order: fill; fill: url(#gradient-8);"/>
      <path d="M53,66.5c-5.6,0-10.8,3-13.6,7.8c0,0,0,0.1-0.1,0.1c-0.4,0-0.7-0.1-1.1-0.1c-5.5,0-10.4,3.9-11.6,9.3   c-0.2,0.8-0.3,1.7-0.3,2.5c0,0.7,0.6,1.2,1.2,1.2s1.2-0.6,1.2-1.2c0-0.7,0.1-1.3,0.2-2c0.9-4.3,4.8-7.3,9.1-7.3   c3.3,0,6.4,1.8,8.1,4.6c0.3,0.6,1.1,0.8,1.7,0.4c0.6-0.3,0.8-1.1,0.4-1.7c-1.5-2.5-3.8-4.4-6.6-5.3c2.4-3.7,6.6-6,11-6   c6.2,0,11.6,4.4,12.9,10.4c0.2,0.9,0.3,1.9,0.3,2.8c0,0.7,0.6,1.2,1.2,1.2s1.2-0.6,1.2-1.2c0-1.1-0.1-2.3-0.4-3.4   C66.8,71.6,60.3,66.5,53,66.5z" style="fill-rule: nonzero; paint-order: fill; fill: url(#gradient-9);"/>
      <path d="M75.3,60.5c-2.4,0-4.7,0.4-7,1.1c1.9-3.2,2.9-6.9,2.9-10.7c0-11.7-9.5-21.2-21.2-21.2s-21.2,9.5-21.2,21.2   c0,1.2,0.1,2.5,0.3,3.7c-7.3,1.3-12.8,7.7-12.8,15.4c0,0.3,0,0.6,0,1C7.7,71.1,0.8,78.1,0.8,86.7C0.8,91,2.5,95,5.7,98   c0.2,0.2,0.5,0.3,0.9,0.3h87.6c0.4,0,0.8-0.2,1-0.5c2.7-4,4.1-8.6,4.1-13.4C99.2,71.3,88.5,60.5,75.3,60.5z M31.2,50.9   c0-10.3,8.4-18.8,18.8-18.8s18.8,8.4,18.8,18.8c0,3-0.7,6-2.1,8.6c-1.7-6.8-7.9-11.9-15.2-11.9c-5.6,0-10.8,3-13.6,7.9   C36,54.7,34,54.3,32,54.3c-0.1,0-0.2,0-0.4,0C31.4,53.2,31.2,52,31.2,50.9z M93.4,95.9H7c-2.4-2.5-3.8-5.7-3.8-9.2   c0-7.3,5.9-13.2,13.2-13.2c0.4,0,0.8,0,1.1,0.1c0.4,0,0.8-0.1,1-0.4c0.3-0.3,0.4-0.7,0.3-1c-0.1-0.8-0.2-1.4-0.2-2.1   c0-7.3,5.9-13.2,13.2-13.2c2.1,0,4,0.5,5.9,1.4c0.3,0.2,0.6,0.2,1,0.1c0.3-0.1,0.6-0.3,0.7-0.6c2.2-4.6,6.9-7.5,11.9-7.5   c7.3,0,13.2,5.9,13.2,13.2c0,0.1,0,0.2,0,0.3v0.3c0,0.4,0.2,0.8,0.6,1.1c0.4,0.2,0.8,0.3,1.2,0.1c2.8-1.3,5.9-2,9-2   c11.8,0,21.4,9.6,21.4,21.4C96.8,88.5,95.6,92.5,93.4,95.9z" style="fill-rule: nonzero; paint-order: fill; fill: url(#gradient-10);"/>
    </g>
    <text style="fill: url(#gradient-11); font-family: Montserrat; font-size: 9.5px; paint-order: fill; white-space: pre;" x="0.302" y="60.164">WEATHER</text>
    <text style="fill: url(#gradient-12); font-family: Montserrat; font-size: 9.5px; font-weight: 700; paint-order: fill; white-space: pre;" transform="matrix(1.016126, 0, 0, 1, -0.821907, 2)" x="5.192" y="68.457">WE   GO</text>
    <rect x="1.616" y="74.998" width="47.02" height="0.219" style="fill-rule: nonzero; stroke: rgb(255, 255, 255); paint-order: fill; fill: url(#gradient-13);"/>
  </g>
</svg>